<?xml version="1.0" encoding="UTF-8" standalone="no"?>
<!DOCTYPE svg PUBLIC "-//W3C//DTD SVG 1.1//EN" "http://www.w3.org/Graphics/SVG/1.1/DTD/svg11.dtd">
<svg width="100%" height="100%" viewBox="0 0 24 24" version="1.1" xmlns="http://www.w3.org/2000/svg" xmlns:xlink="http://www.w3.org/1999/xlink" xml:space="preserve" xmlns:serif="http://www.serif.com/" style="fill-rule:evenodd;clip-rule:evenodd;stroke-linejoin:round;stroke-miterlimit:1.41421;">
    <path d="M22.68,0L1.32,0C0.596,0 0,0.596 0,1.32L0,22.68C0,23.404 0.596,24 1.32,24L12.82,24L12.82,14.71L9.69,14.71L9.69,11.09L12.82,11.09L12.82,8.41C12.82,5.31 14.71,3.62 17.48,3.62C18.412,3.615 19.344,3.665 20.27,3.77L20.27,7L18.35,7C16.85,7 16.56,7.72 16.56,8.77L16.56,11.08L20.14,11.08L19.68,14.71L16.56,14.71L16.56,24L22.67,24C22.673,24 22.677,24 22.68,24C23.404,24 24,23.404 24,22.68C24,22.68 24,22.68 24,22.68L24,1.32C24,0.596 23.404,0 22.68,0" style="fill:rgb(189,195,199);fill-rule:nonzero;"/>
</svg>
