<?xml version="1.0" encoding="UTF-8" standalone="no"?>
<!DOCTYPE svg PUBLIC "-//W3C//DTD SVG 1.1//EN" "http://www.w3.org/Graphics/SVG/1.1/DTD/svg11.dtd">
<svg width="100%" height="100%" viewBox="0 0 24 24" version="1.1" xmlns="http://www.w3.org/2000/svg" xmlns:xlink="http://www.w3.org/1999/xlink" xml:space="preserve" xmlns:serif="http://www.serif.com/" style="fill-rule:evenodd;clip-rule:evenodd;stroke-linejoin:round;stroke-miterlimit:1.41421;">
    <path d="M22.22,0L1.77,0C1.763,0 1.757,0 1.75,0C0.797,0 0.011,0.778 0,1.73L0,22.27C0.011,23.222 0.797,24 1.75,24C1.757,24 1.763,24 1.77,24L22.22,24C22.23,24 22.24,24 22.25,24C23.203,24 23.989,23.223 24,22.27L24,1.73C23.989,0.777 23.203,0 22.25,0C22.24,0 22.23,0 22.22,0ZM13.7,16.45C12.58,17.57 11.47,18.69 10.35,19.79C9.689,20.455 8.841,20.905 7.92,21.08C6.944,21.285 5.926,21.136 5.05,20.66C3.963,20.086 3.188,19.054 2.94,17.85C2.724,16.832 2.873,15.77 3.36,14.85C3.591,14.394 3.895,13.978 4.26,13.62L7.89,10C8.609,9.287 9.538,8.824 10.54,8.68C11.606,8.509 12.698,8.753 13.59,9.36C13.807,9.505 14.009,9.672 14.19,9.86C14.41,10.078 14.533,10.375 14.533,10.685C14.533,11.323 14.008,11.848 13.37,11.848C13.063,11.848 12.768,11.727 12.55,11.51C12.3,11.273 11.994,11.104 11.66,11.02C11.136,10.895 10.585,10.966 10.11,11.22C9.87,11.341 9.654,11.504 9.47,11.7C8.73,12.43 8,13.17 7.27,13.91L5.87,15.32C5.501,15.684 5.259,16.158 5.18,16.67C5.164,16.77 5.156,16.872 5.156,16.973C5.156,17.91 5.845,18.715 6.77,18.86C7.25,18.929 7.74,18.834 8.16,18.59C8.394,18.452 8.609,18.284 8.8,18.09L10.8,16.09C11.15,16.349 11.559,16.517 11.99,16.58C12.338,16.652 12.695,16.679 13.05,16.66C13.281,16.651 13.507,16.59 13.71,16.48L13.7,16.45ZM20.44,9.53C20.206,9.894 19.931,10.229 19.62,10.53L16.28,13.84C15.948,14.189 15.572,14.491 15.16,14.74C14.593,15.082 13.958,15.297 13.3,15.37C12.282,15.497 11.253,15.244 10.41,14.66C10.158,14.503 9.932,14.307 9.74,14.08C9.489,13.78 9.417,13.368 9.55,13C9.723,12.548 10.159,12.247 10.643,12.247C10.943,12.247 11.233,12.363 11.45,12.57C11.722,12.844 12.071,13.029 12.45,13.1C12.898,13.177 13.359,13.114 13.77,12.92C14.049,12.789 14.303,12.609 14.52,12.39L17.69,9.19C17.88,9 18.07,8.82 18.25,8.61C18.532,8.287 18.719,7.893 18.79,7.47C18.973,6.534 18.426,5.598 17.52,5.3C17.084,5.144 16.606,5.144 16.17,5.3C15.824,5.428 15.51,5.629 15.25,5.89L13.25,7.89C12.973,7.68 12.651,7.536 12.31,7.47C11.923,7.36 11.522,7.31 11.12,7.32C10.898,7.32 10.678,7.361 10.47,7.44L10.36,7.44C11.46,6.34 12.56,5.23 13.67,4.13C14.334,3.468 15.18,3.019 16.1,2.84C17.342,2.581 18.637,2.89 19.63,3.68C20.385,4.282 20.902,5.133 21.09,6.08C21.35,7.27 21.116,8.516 20.44,9.53Z" style="fill:rgb(189,195,199);fill-rule:nonzero;"/>
</svg>
