<?xml version="1.0" encoding="UTF-8" standalone="no"?>
<!DOCTYPE svg PUBLIC "-//W3C//DTD SVG 1.1//EN" "http://www.w3.org/Graphics/SVG/1.1/DTD/svg11.dtd">
<svg width="100%" height="100%" viewBox="0 0 24 24" version="1.1" xmlns="http://www.w3.org/2000/svg" xmlns:xlink="http://www.w3.org/1999/xlink" xml:space="preserve" xmlns:serif="http://www.serif.com/" style="fill-rule:evenodd;clip-rule:evenodd;stroke-linejoin:round;stroke-miterlimit:1.41421;">
    <path d="M20.45,20.45L16.89,20.45L16.89,14.88C16.89,13.55 16.89,11.88 15.04,11.88C13.19,11.88 12.91,13.32 12.91,14.81L12.91,20.48L9.35,20.48L9.35,9L12.76,9L12.76,10.56L12.81,10.56C13.507,9.372 14.804,8.66 16.18,8.71C19.78,8.71 20.45,11.08 20.45,14.17L20.45,20.45ZM5.34,7.43C4.21,7.43 3.28,6.5 3.28,5.37C3.28,4.24 4.21,3.31 5.34,3.31C6.47,3.31 7.4,4.24 7.4,5.37C7.4,6.5 6.47,7.43 5.34,7.43ZM7.12,20.43L3.56,20.43L3.56,9L7.12,9L7.12,20.43ZM22.23,0L1.77,0C1.763,0 1.757,0 1.75,0C0.797,0 0.011,0.778 0,1.73L0,22.27C0.011,23.222 0.797,24 1.75,24C1.757,24 1.763,24 1.77,24L22.22,24C22.23,24 22.24,24 22.25,24C23.203,24 23.989,23.223 24,22.27L24,1.73C23.989,0.777 23.203,0 22.25,0C22.24,0 22.23,0 22.22,0L22.23,0Z" style="fill:rgb(189,195,199);fill-rule:nonzero;"/>
</svg>
