<?xml version="1.0" encoding="UTF-8" standalone="no"?>
<!DOCTYPE svg PUBLIC "-//W3C//DTD SVG 1.1//EN" "http://www.w3.org/Graphics/SVG/1.1/DTD/svg11.dtd">
<svg width="100%" height="100%" viewBox="0 0 24 24" version="1.1" xmlns="http://www.w3.org/2000/svg" xmlns:xlink="http://www.w3.org/1999/xlink" xml:space="preserve" xmlns:serif="http://www.serif.com/" style="fill-rule:evenodd;clip-rule:evenodd;stroke-linejoin:round;stroke-miterlimit:1.41421;">
    <path d="M22.22,0L1.77,0C1.763,0 1.757,0 1.75,0C0.797,0 0.011,0.778 0,1.73L0,22.27C0.011,23.222 0.797,24 1.75,24C1.757,24 1.763,24 1.77,24L22.22,24C22.23,24 22.24,24 22.25,24C23.203,24 23.989,23.223 24,22.27L24,1.73C23.989,0.777 23.203,0 22.25,0C22.24,0 22.23,0 22.22,0ZM20.15,7.85C20.15,8.03 20.15,8.21 20.15,8.38C20.15,8.407 20.15,8.434 20.15,8.461C20.15,14.972 14.792,20.331 8.28,20.331C8.237,20.331 8.193,20.33 8.15,20.33C5.864,20.327 3.626,19.671 1.7,18.44C3.948,18.731 6.22,18.103 8,16.7C6.179,16.697 4.558,15.513 4,13.78C4.627,13.908 5.275,13.884 5.89,13.71C3.946,13.307 2.542,11.575 2.55,9.59L2.55,9.54C3.133,9.862 3.784,10.041 4.45,10.06C2.612,8.835 2.038,6.359 3.15,4.45C5.283,7.072 8.434,8.666 11.81,8.83C11.735,8.502 11.698,8.166 11.7,7.83C11.705,5.524 13.604,3.63 15.91,3.63C17.087,3.629 18.211,4.127 19,5C19.939,4.816 20.841,4.478 21.67,4C21.346,4.973 20.681,5.796 19.8,6.32C20.632,6.216 21.444,5.991 22.21,5.65C21.659,6.5 20.962,7.245 20.15,7.85Z" style="fill:rgb(189,195,199);fill-rule:nonzero;"/>
</svg>
